<svg version="1.1" id="Layer_1" xmlns="http://www.w3.org/2000/svg" xmlns:xlink="http://www.w3.org/1999/xlink" x="0px" y="0px"
	 width="100%" viewBox="0 0 512 352" enable-background="new 0 0 512 352" xml:space="preserve">
<path fill="#000000" opacity="1.000000" stroke="none" 
	d="
M254.719116,219.000381 
	C254.595093,211.509247 254.399536,204.518082 254.388000,197.526611 
	C254.380875,193.200974 252.244614,190.283157 248.721786,188.235916 
	C234.134079,179.758392 219.509613,171.344101 204.914261,162.879700 
	C197.169373,158.388138 189.448685,153.854630 181.737503,149.305450 
	C180.599533,148.634125 179.608948,147.677902 177.755478,148.058929 
	C176.082047,152.235321 178.840424,159.640259 170.702560,159.830078 
	C167.403992,159.907013 166.305603,157.156174 165.494415,148.807861 
	C164.928223,148.014175 164.107956,148.042099 163.260284,148.075165 
	C160.918365,148.166473 158.402313,148.458847 157.107590,145.889328 
	C155.858093,143.409546 156.219727,141.068756 158.320999,139.071747 
	C159.860748,137.608414 159.529343,136.266617 158.103378,134.801224 
	C156.513397,133.167297 156.410324,131.104874 157.759567,129.321716 
	C159.287384,127.302582 162.064468,125.906631 163.895691,127.389870 
	C171.346268,133.424652 176.758514,128.027527 182.585388,124.655968 
	C199.945694,114.610909 217.294800,104.546448 234.631607,94.460907 
	C241.341354,90.557556 248.081177,86.697105 254.663239,82.586418 
	C258.518372,80.178780 262.158539,80.309410 265.886322,82.493134 
	C288.752838,95.888298 311.609802,109.299736 334.457642,122.726761 
	C338.566895,125.141663 343.343048,126.286697 346.872162,129.880661 
	C348.606903,131.647324 350.906769,130.592606 352.797241,129.231552 
	C355.311829,127.421150 358.078461,125.770042 361.025452,127.913780 
	C363.998352,130.076340 363.567230,132.972794 361.899475,135.916367 
	C361.003510,137.497681 361.937317,138.798752 363.108765,139.859726 
	C364.800690,141.392044 366.358124,143.284897 365.125854,145.459900 
	C364.053040,147.353470 361.677734,147.914948 359.459290,148.090561 
	C358.155701,148.193756 356.830200,147.449631 355.319397,148.311066 
	C353.864624,150.274078 354.933746,152.671051 354.973511,154.876694 
	C355.270538,171.355286 354.070862,187.831787 354.949310,204.309052 
	C355.143433,207.950470 354.530090,211.047363 349.878540,211.273834 
	C345.281433,211.497681 344.354980,208.275528 343.845398,204.849091 
	C342.490875,195.741882 344.063141,186.610062 343.781219,177.480560 
	C343.534607,169.494339 343.820892,161.492798 343.760132,153.498871 
	C343.745850,151.622009 344.406830,149.422150 341.845184,147.805832 
	C332.410919,153.211975 322.802429,158.700043 313.211304,164.218277 
	C299.858826,171.900620 286.507690,179.585373 273.180328,187.311096 
	C268.127136,190.240372 265.120728,194.155182 265.197296,200.545685 
	C265.444855,221.198227 265.286530,241.855667 265.273987,262.511230 
	C265.272980,264.175262 265.310974,265.853271 265.118103,267.499908 
	C264.839172,269.881378 263.521271,271.499542 261.072906,271.945679 
	C258.696991,272.378601 257.398529,270.947998 256.307861,269.110840 
	C254.246857,265.639221 254.028381,261.716339 254.270340,257.962402 
	C255.096725,245.141190 254.358215,232.316437 254.719116,219.000381 
M255.059631,95.601410 
	C249.858139,97.034813 245.646332,100.475708 241.060883,103.015411 
	C222.302567,113.404938 203.929398,124.488747 185.379776,135.257248 
	C182.160568,137.126068 183.203857,138.192230 185.720459,139.631546 
	C202.663391,149.321655 219.528885,159.147461 236.492661,168.800644 
	C242.266495,172.086212 247.811951,175.865601 254.545975,178.397766 
	C254.163300,173.574615 253.289642,168.109039 258.777557,167.150787 
	C268.124695,165.518707 263.757721,174.675873 266.441223,178.897293 
	C290.089508,164.640976 314.379395,152.154922 337.554230,137.557877 
	C336.745605,136.465332 336.607544,136.103760 336.347168,135.951950 
	C315.470276,123.780640 294.643463,111.520790 273.633484,99.583366 
	C270.506012,97.806419 267.601105,94.419060 263.224426,95.764526 
	C260.706879,96.538467 258.280609,95.935036 255.059631,95.601410 
z"/>
<path fill="#000000" opacity="1.000000" stroke="none" 
	d="
M177.188568,222.772522 
	C177.416000,225.330002 176.715088,227.513702 177.743225,229.685196 
	C181.752533,228.551895 185.307632,223.770370 189.886673,228.279617 
	C191.338852,229.709656 192.371658,231.425659 191.086868,233.125809 
	C187.941849,237.287628 184.089554,240.323166 178.132599,238.830963 
	C184.688477,244.384705 192.424759,247.664352 199.581726,251.867355 
	C216.140350,261.591522 232.880325,271.007172 249.422729,280.758362 
	C252.235168,282.416199 254.289749,283.237518 256.854248,280.612061 
	C259.375702,278.030701 262.107391,278.863434 264.337280,281.075867 
	C266.074768,282.799774 267.588501,282.929321 269.636536,281.745361 
	C288.306824,270.951935 307.092896,260.355042 325.645111,249.363220 
	C331.009155,246.185135 336.818604,243.639603 342.648132,238.619064 
	C337.939575,239.772156 335.011292,238.366730 332.174500,236.242691 
	C329.358063,234.133896 328.885193,231.484528 330.477264,228.830200 
	C332.114136,226.101257 334.746033,225.274902 337.753113,227.283447 
	C339.107697,228.188187 340.606018,228.877686 342.344452,229.832550 
	C343.498322,227.369934 342.937988,224.561234 344.304108,222.235962 
	C345.586823,220.052551 346.901001,218.456268 349.728241,218.748810 
	C352.592255,219.045166 354.016022,220.943329 354.158417,223.364929 
	C354.427979,227.949753 355.183014,231.143234 361.045654,231.334579 
	C364.493927,231.447144 365.623871,235.453583 363.522369,238.467789 
	C362.176147,240.398758 362.344666,242.088501 363.036743,244.087326 
	C363.855316,246.451462 362.704132,248.410477 361.025116,249.850845 
	C359.357330,251.281601 357.228821,251.343079 355.470276,249.959167 
	C352.012726,247.238159 349.082336,248.067505 345.496399,250.167221 
	C322.755188,263.483032 299.873260,276.558624 277.017212,289.677673 
	C275.410278,290.600037 273.731720,291.334991 273.016357,293.774689 
	C275.320526,295.281891 277.839386,296.753510 280.156525,298.493652 
	C282.584076,300.316711 284.299744,302.701233 282.334381,305.763977 
	C280.304626,308.927185 277.347412,309.447632 274.067200,307.667389 
	C267.923462,304.332977 267.469360,303.099640 269.242828,295.103760 
	C268.946777,295.007263 268.485016,294.735199 268.375000,294.838318 
	C260.783203,301.954071 254.542099,295.987671 248.360260,292.488770 
	C233.935333,284.324371 219.744888,275.746979 205.400955,267.437866 
	C194.412857,261.072693 183.353851,254.828903 172.279221,248.615173 
	C170.425812,247.575287 168.373489,247.848907 166.563553,249.012054 
	C164.235687,250.507996 161.900711,251.850906 159.253372,249.769821 
	C156.832565,247.866791 156.426041,245.468735 157.495178,242.614899 
	C157.818039,241.753098 157.693359,240.629227 157.497681,239.682449 
	C155.867889,231.796936 156.776886,230.692032 164.908112,230.903030 
	C166.249451,229.739548 165.751007,228.140915 165.753693,226.715897 
	C165.784668,210.280930 165.762878,193.845840 165.775879,177.410797 
	C165.777313,175.581024 165.743347,173.726639 166.015167,171.927383 
	C166.423431,169.225021 167.893524,167.223145 170.791977,166.921738 
	C173.686401,166.620758 175.694427,168.339355 176.564926,170.805634 
	C177.484695,173.411484 178.517822,176.379120 178.123932,178.980133 
	C175.939133,193.407104 177.821228,207.881012 177.188568,222.772522 
z"/>
<path fill="#000000" opacity="1.000000" stroke="none" 
	d="
M374.595764,145.969177 
	C376.828827,147.148834 378.834991,148.061371 380.476166,149.416046 
	C382.909668,151.424789 384.802826,154.081635 382.722504,157.208832 
	C380.645874,160.330414 377.658112,160.686798 374.495483,158.416458 
	C373.555450,157.741653 372.431061,157.323807 371.490509,156.649582 
	C369.344238,155.111053 366.432404,153.471603 367.352600,150.536438 
	C368.234680,147.722916 370.581787,145.462067 374.595764,145.969177 
z"/>
<path fill="#000000" opacity="1.000000" stroke="none" 
	d="
M370.524994,223.300903 
	C372.439758,221.547531 374.569824,220.908585 376.622803,220.440994 
	C380.017761,219.667709 382.927948,221.254791 383.325439,224.568970 
	C383.923676,229.556702 378.908081,231.258896 375.991425,233.763718 
	C373.867676,235.587570 371.040192,233.113861 369.197784,231.270844 
	C366.309906,228.381943 368.073364,225.881180 370.524994,223.300903 
z"/>
<path fill="#000000" opacity="1.000000" stroke="none" 
	d="
M380.752930,252.312256 
	C383.151459,254.383667 384.266632,256.591095 382.215668,258.961182 
	C380.268433,261.211334 378.029419,263.395782 374.629578,260.959259 
	C373.312256,260.015198 371.559174,259.625702 370.365692,258.573883 
	C368.175903,256.644012 365.378601,254.526367 367.857117,251.139221 
	C370.194672,247.944672 373.559570,248.226700 376.800934,249.555038 
	C378.134613,250.101608 379.232635,251.223236 380.752930,252.312256 
z"/>
<path fill="#000000" opacity="1.000000" stroke="none" 
	d="
M138.199631,227.751419 
	C137.162918,222.070999 139.915421,219.377792 144.856445,220.742264 
	C146.288223,221.137650 147.747971,221.444489 149.156693,221.908035 
	C152.252579,222.926743 153.973907,226.700974 152.380112,229.571274 
	C150.755402,232.497269 148.417557,234.845200 144.732941,232.770599 
	C142.455032,231.488037 140.491119,229.647781 138.199631,227.751419 
z"/>
<path fill="#000000" opacity="1.000000" stroke="none" 
	d="
M309.563293,220.648895 
	C310.728851,216.033707 313.906921,214.287689 318.070038,215.908234 
	C320.710236,216.935928 322.911560,218.791336 324.598022,221.091965 
	C325.765320,222.684341 326.077728,224.552887 324.501617,226.062943 
	C322.897186,227.600113 321.447418,229.743515 318.582733,228.407028 
	C314.940857,226.707916 311.457062,224.870071 309.563293,220.648895 
z"/>
<path fill="#000000" opacity="1.000000" stroke="none" 
	d="
M296.117584,319.607208 
	C293.810883,318.667999 291.682617,318.046875 289.945557,316.855377 
	C287.142395,314.932617 285.476318,312.181702 287.262024,308.782501 
	C288.910187,305.645111 291.922577,306.127625 294.705170,306.905670 
	C297.177124,307.596863 299.034515,309.413849 300.563263,311.303925 
	C303.106903,314.448883 301.551697,317.420898 296.117584,319.607208 
z"/>
<path fill="#000000" opacity="1.000000" stroke="none" 
	d="
M274.426208,71.289383 
	C278.376709,69.016945 280.910278,70.766220 282.561523,73.803879 
	C284.182098,76.785065 281.993042,78.769394 279.885468,80.510666 
	C279.123749,81.139961 278.171173,81.536629 277.401703,82.158287 
	C274.722321,84.323067 272.025299,85.002045 269.616974,81.942017 
	C266.993683,78.608810 268.217224,75.752922 271.172974,73.360863 
	C272.069519,72.635269 273.127960,72.109718 274.426208,71.289383 
z"/>
<path fill="#000000" opacity="1.000000" stroke="none" 
	d="
M297.926086,216.540100 
	C296.178040,215.472107 294.714935,214.684692 293.378387,213.721634 
	C290.909119,211.942398 289.916107,209.602356 291.733490,206.884567 
	C293.445129,204.324921 295.753754,202.898438 298.908722,204.680954 
	C300.060608,205.331726 301.312592,205.879593 302.302795,206.726944 
	C304.364471,208.491272 307.246307,210.147446 305.929565,213.476456 
	C304.590912,216.860825 301.884155,218.143402 297.926086,216.540100 
z"/>
<path fill="#000000" opacity="1.000000" stroke="none" 
	d="
M145.804291,260.942078 
	C142.446350,262.932068 140.338501,261.387726 138.934616,258.909576 
	C137.497055,256.371948 137.906403,253.793503 140.198151,251.768585 
	C140.933655,251.118744 141.765625,250.523407 142.649185,250.105576 
	C145.925781,248.556168 149.534866,247.400772 152.048538,250.887589 
	C154.949081,254.911041 151.257050,257.105682 148.728226,259.360413 
	C148.013931,259.997284 146.997787,260.295624 145.804291,260.942078 
z"/>
<path fill="#000000" opacity="1.000000" stroke="none" 
	d="
M138.134308,120.799759 
	C139.841202,115.466080 142.248642,114.417786 146.611633,117.004066 
	C149.611710,118.782463 153.914230,119.771118 152.892441,124.769295 
	C152.371536,127.317307 150.485275,129.221878 147.983765,128.946121 
	C143.949341,128.501389 140.419525,126.672928 138.619980,122.621933 
	C138.418777,122.169014 138.328491,121.666832 138.134308,120.799759 
z"/>
<path fill="#000000" opacity="1.000000" stroke="none" 
	d="
M222.842850,308.750061 
	C224.894623,306.690125 227.178543,306.292908 229.510498,306.508759 
	C231.747421,306.715820 233.613403,307.784027 234.394547,310.092834 
	C235.153931,312.337341 234.060699,313.934235 232.351120,315.179138 
	C231.034912,316.137604 229.693390,317.122711 228.226486,317.800110 
	C225.176224,319.208679 222.109085,319.664856 219.922150,316.317902 
	C217.632370,312.813538 220.168198,310.894073 222.842850,308.750061 
z"/>
<path fill="#000000" opacity="1.000000" stroke="none" 
	d="
M381.421204,124.329597 
	C379.454742,125.861977 377.781769,127.205070 375.958008,128.296036 
	C373.526825,129.750366 371.284271,129.518173 369.382050,127.173950 
	C367.548340,124.914124 367.429596,122.704849 369.297089,120.460899 
	C371.250183,118.114029 373.693085,116.465561 376.692749,115.827988 
	C379.200195,115.295029 380.620728,116.995338 382.030884,118.690567 
	C383.645477,120.631561 383.003418,122.338020 381.421204,124.329597 
z"/>
<path fill="#000000" opacity="1.000000" stroke="none" 
	d="
M249.971695,83.045212 
	C244.927414,85.135063 242.260071,81.279800 239.303482,79.092957 
	C237.308731,77.617554 238.181137,74.841019 239.425491,72.681236 
	C240.114349,71.485611 240.943832,70.188179 242.362839,70.292152 
	C246.512466,70.596199 249.843353,72.777679 252.217377,76.006287 
	C254.218872,78.728249 252.440552,80.979645 249.971695,83.045212 
z"/>
<path fill="#000000" opacity="1.000000" stroke="none" 
	d="
M219.188965,65.710083 
	C219.641525,61.301617 221.980698,59.557938 225.950012,60.100754 
	C230.084335,60.666130 234.724701,64.755043 234.734253,67.693703 
	C234.746674,71.513374 229.111221,73.777596 224.966583,71.356232 
	C222.747604,70.059875 220.404373,68.648560 219.188965,65.710083 
z"/>
<path fill="#000000" opacity="1.000000" stroke="none" 
	d="
M249.053101,295.595032 
	C251.553635,297.819916 254.657257,299.932159 251.824310,303.133820 
	C249.144409,306.162445 245.883362,309.324310 241.188812,308.031097 
	C238.788864,307.370056 237.600876,305.073212 237.977951,302.547211 
	C238.585373,298.478088 244.338455,294.765106 249.053101,295.595032 
z"/>
<path fill="#000000" opacity="1.000000" stroke="none" 
	d="
M276.356628,193.631836 
	C280.402222,193.273117 282.978149,195.315323 285.365692,197.694580 
	C286.785492,199.109406 287.077179,200.816574 286.473907,202.728806 
	C285.837952,204.744751 284.285797,205.545670 282.402588,205.885269 
	C279.040649,206.491516 273.205231,203.193420 272.313110,200.002060 
	C271.413086,196.782501 272.484772,194.467468 276.356628,193.631836 
z"/>
<path fill="#000000" opacity="1.000000" stroke="none" 
	d="
M219.933868,205.852768 
	C223.285583,203.153687 226.130142,203.393005 228.182114,206.719940 
	C230.189636,209.974762 229.081055,212.697556 225.860199,214.611176 
	C225.718628,214.695282 225.581161,214.786713 225.444870,214.879272 
	C221.025635,217.880447 217.211777,217.975830 215.416885,215.129410 
	C213.536606,212.147568 215.020844,208.927200 219.933868,205.852768 
z"/>
<path fill="#000000" opacity="1.000000" stroke="none" 
	d="
M138.599976,156.699738 
	C137.139587,152.189621 138.858047,149.541473 144.269516,146.776505 
	C147.512726,145.119385 149.633865,146.517822 151.502258,148.944809 
	C153.783478,151.908051 151.710876,153.929367 149.738159,155.706299 
	C144.829590,160.127670 142.459229,160.340958 138.599976,156.699738 
z"/>
<path fill="#000000" opacity="1.000000" stroke="none" 
	d="
M236.590698,196.551331 
	C238.570694,194.588272 240.645813,193.727814 243.047073,193.501312 
	C245.623856,193.258209 247.020706,194.701813 248.042206,196.770920 
	C249.098999,198.911560 248.461182,200.669357 246.648102,201.977066 
	C244.925354,203.219635 243.419144,204.785034 241.227097,205.356979 
	C238.291260,206.123016 235.468613,206.173615 233.738815,203.343674 
	C231.878311,200.299896 234.139328,198.473282 236.590698,196.551331 
z"/>
<path fill="#000000" opacity="1.000000" stroke="none" 
	d="
M287.139099,68.759064 
	C287.916229,62.554703 293.163177,58.927418 298.278687,60.495815 
	C300.715607,61.242966 302.043091,62.764328 301.558380,65.238251 
	C300.792389,69.147850 297.479340,70.739220 294.244019,71.862930 
	C291.475128,72.824646 288.597839,72.551918 287.139099,68.759064 
z"/>
<path fill="#000000" opacity="1.000000" stroke="none" 
	d="
M206.427612,225.558502 
	C204.883026,226.572266 203.654800,227.491272 202.274139,227.977203 
	C200.657104,228.546326 198.992691,228.319717 197.564392,227.168427 
	C195.825851,225.767044 194.949921,223.938614 195.908752,221.887207 
	C197.624725,218.215973 200.694122,215.935196 204.660034,215.337128 
	C206.716446,215.026978 208.665497,216.202164 209.479614,218.233261 
	C210.722549,221.334213 207.617523,222.916687 206.427612,225.558502 
z"/>
<path fill="#000000" opacity="1.000000" stroke="none" 
	d="
M122.432892,269.299713 
	C119.508987,263.625122 121.553246,260.910980 130.479218,258.339447 
	C132.597610,261.350067 136.604355,264.185791 132.351013,268.267059 
	C129.760757,270.752533 126.571281,274.108337 122.432892,269.299713 
z"/>
<path fill="#000000" opacity="1.000000" stroke="none" 
	d="
M125.359100,170.311584 
	C122.776360,168.005814 120.098671,165.856110 121.091286,162.279251 
	C121.835968,159.595825 123.982841,158.019440 126.855072,157.503082 
	C129.583344,157.012619 131.767410,157.721848 133.267883,160.066025 
	C134.801437,162.461884 133.795670,164.316681 132.015305,166.181763 
	C130.187408,168.096634 128.519104,170.097641 125.359100,170.311584 
z"/>
<path fill="#000000" opacity="1.000000" stroke="none" 
	d="
M399.082886,267.790588 
	C398.477814,270.454773 397.447113,272.768219 394.779449,271.917145 
	C391.373230,270.830444 387.870880,269.325562 386.694550,265.335358 
	C385.855255,262.488312 387.913300,260.919403 389.830566,259.721191 
	C393.506042,257.424164 398.505035,261.622711 399.082886,267.790588 
z"/>
<path fill="#000000" opacity="1.000000" stroke="none" 
	d="
M203.998291,52.232544 
	C208.552856,49.346279 212.510498,50.231754 215.062256,54.374119 
	C217.257278,57.937401 215.250488,61.894341 211.087479,62.211468 
	C206.229630,62.581524 202.248077,57.338730 203.998291,52.232544 
z"/>
<path fill="#000000" opacity="1.000000" stroke="none" 
	d="
M126.012703,210.127182 
	C128.534500,210.620758 130.332870,211.853333 131.912369,213.278534 
	C133.799713,214.981506 135.634232,217.152908 133.379837,219.633606 
	C131.447433,221.759979 129.414780,223.926758 125.767235,221.701752 
	C119.396004,217.815353 119.215935,214.304474 126.012703,210.127182 
z"/>
<path fill="#000000" opacity="1.000000" stroke="none" 
	d="
M316.375305,320.082153 
	C317.747955,323.626709 317.909729,326.786072 314.420135,328.536469 
	C310.906158,330.299072 308.282684,327.787292 306.371368,325.459106 
	C304.453033,323.122375 304.653839,320.170135 306.972992,317.837006 
	C310.969177,313.816772 313.342041,317.884521 316.375305,320.082153 
z"/>
<path fill="#000000" opacity="1.000000" stroke="none" 
	d="
M391.792847,168.656342 
	C390.903717,168.120499 390.319031,167.787338 389.833588,167.345245 
	C387.540741,165.257080 385.331696,163.077606 387.515289,159.678802 
	C389.558777,156.497986 392.585175,156.760590 395.476593,157.978394 
	C398.429291,159.222000 399.622650,161.783264 398.938232,164.926926 
	C398.135681,168.613434 395.594299,169.588486 391.792847,168.656342 
z"/>
<path fill="#000000" opacity="1.000000" stroke="none" 
	d="
M389.513062,116.981644 
	C386.102661,114.229889 386.452515,111.353096 388.515625,108.428444 
	C390.140137,106.125519 392.424622,105.348969 395.091400,106.257454 
	C397.483154,107.072243 399.117615,108.778053 399.132721,111.391937 
	C399.149139,114.232048 397.285736,116.055122 394.811859,116.893387 
	C393.318451,117.399437 391.547363,117.086098 389.513062,116.981644 
z"/>
<path fill="#000000" opacity="1.000000" stroke="none" 
	d="
M398.119324,213.086227 
	C399.464417,218.041092 397.709106,221.222458 393.331329,222.458267 
	C390.241852,223.330429 388.639404,221.410202 387.485657,219.066818 
	C386.389038,216.839478 387.158722,214.671555 388.880798,213.206467 
	C391.648010,210.852142 394.742615,210.091675 398.119324,213.086227 
z"/>
<path fill="#000000" opacity="1.000000" stroke="none" 
	d="
M121.690506,113.178986 
	C120.359367,108.521759 122.796028,106.603119 126.515205,106.109749 
	C129.364777,105.731728 134.032623,110.297295 134.016388,112.958778 
	C133.994705,116.512024 128.716095,118.753746 125.039886,116.608917 
	C123.807213,115.889732 122.933380,114.555489 121.690506,113.178986 
z"/>
<path fill="#000000" opacity="1.000000" stroke="none" 
	d="
M207.140106,318.215454 
	C210.266556,315.132629 212.243271,316.842773 214.377182,319.111298 
	C216.853165,321.743500 215.216904,323.744446 213.491226,325.482971 
	C211.445557,327.543884 208.742401,329.095306 206.041550,326.904449 
	C202.381607,323.935608 204.739059,321.104919 207.140106,318.215454 
z"/>
<path fill="#000000" opacity="1.000000" stroke="none" 
	d="
M306.183716,54.829220 
	C306.984650,53.999825 307.540894,53.337154 308.251190,52.987537 
	C310.739563,51.762810 313.295898,51.134823 315.481140,53.523411 
	C316.724365,54.882313 316.914337,56.599674 315.680969,58.023987 
	C313.878815,60.105114 311.578003,61.521442 308.720215,60.578033 
	C306.180817,59.739731 305.099670,57.856434 306.183716,54.829220 
z"/>
<path fill="#000000" opacity="1.000000" stroke="none" 
	d="
M256.476929,158.760162 
	C252.886871,154.616104 254.075699,150.854279 256.274841,146.966278 
	C258.390625,143.225708 260.743225,143.624298 263.402771,146.201401 
	C265.448212,148.183426 266.244202,156.326538 264.380493,158.486557 
	C262.155884,161.064880 259.450165,160.790253 256.476929,158.760162 
z"/>
<path fill="#000000" opacity="1.000000" stroke="none" 
	d="
M265.074799,105.673721 
	C265.198212,108.238274 265.359436,110.395943 265.213745,112.532700 
	C264.950378,116.395744 262.449066,118.189552 258.814240,117.158768 
	C255.900543,116.332474 254.400711,114.107384 254.397110,111.250412 
	C254.392990,107.976318 254.369141,104.364090 258.224060,102.852722 
	C261.025604,101.754333 263.395172,102.571220 265.074799,105.673721 
z"/>
<path fill="#000000" opacity="1.000000" stroke="none" 
	d="
M254.297302,132.633850 
	C254.093246,129.461227 254.881439,127.016029 257.106781,125.221878 
	C260.443390,122.531769 264.525269,124.145172 265.169128,128.383652 
	C265.292053,129.192841 265.305817,130.029648 265.271912,130.849670 
	C265.139465,134.052597 265.992767,137.900238 261.253357,138.578064 
	C257.130157,139.167755 255.366135,136.470352 254.297302,132.633850 
z"/>
</svg>